<svg width="18" height="18" viewBox="0 0 18 18" fill="none" xmlns="http://www.w3.org/2000/svg">
<path d="M9.47065 4.33203H8.53119C8.44526 4.33203 8.37494 4.40235 8.37494 4.48828V9.86524C8.37494 9.91602 8.39838 9.96289 8.4394 9.99219L11.6679 12.3496C11.7382 12.4004 11.8359 12.3867 11.8867 12.3164L12.4453 11.5547C12.498 11.4824 12.4824 11.3848 12.4121 11.3359L9.6269 9.32227V4.48828C9.6269 4.40235 9.55659 4.33203 9.47065 4.33203ZM13.7636 5.80078L16.8261 6.54883C16.9238 6.57227 17.0195 6.49805 17.0195 6.39844L17.0351 3.24414C17.0351 3.11328 16.8847 3.03907 16.7831 3.1211L13.705 5.52539C13.6818 5.54339 13.664 5.56759 13.6539 5.5952C13.6438 5.62282 13.6417 5.65273 13.6478 5.6815C13.6539 5.71027 13.668 5.73672 13.6885 5.75782C13.709 5.77893 13.735 5.79382 13.7636 5.80078ZM17.039 11.6816L15.9316 11.3008C15.893 11.2875 15.8507 11.2899 15.8139 11.3075C15.777 11.325 15.7484 11.3562 15.7343 11.3945C15.6972 11.4941 15.6581 11.5918 15.6171 11.6895C15.2695 12.5117 14.7714 13.252 14.1347 13.8867C13.5051 14.5183 12.7589 15.0218 11.9374 15.3691C11.0865 15.7289 10.1718 15.9136 9.24799 15.9121C8.3144 15.9121 7.4101 15.7305 6.55854 15.3691C5.73713 15.0218 4.99092 14.5183 4.36127 13.8867C3.72651 13.252 3.22846 12.5117 2.87885 11.6895C2.52107 10.8381 2.33777 9.92352 2.33979 9C2.33979 8.06641 2.52143 7.16016 2.88276 6.3086C3.23041 5.48633 3.72846 4.7461 4.36518 4.11133C4.99483 3.47973 5.74104 2.97628 6.56245 2.62891C7.4101 2.26758 8.31635 2.08594 9.24994 2.08594C10.1835 2.08594 11.0878 2.26758 11.9394 2.62891C12.7608 2.97628 13.507 3.47973 14.1367 4.11133C14.3359 4.3125 14.5234 4.52149 14.6953 4.74219L15.8632 3.82813C14.3261 1.86328 11.9335 0.599612 9.24604 0.601565C4.56635 0.603518 0.808539 4.4043 0.855414 9.08594C0.902289 13.6856 4.64252 17.3984 9.24994 17.3984C12.873 17.3984 15.9589 15.1016 17.1347 11.8848C17.164 11.8027 17.121 11.7109 17.039 11.6816Z" fill="white"/>
</svg>
